*
%FSLAX26Y26*%
%MOIN*%
G04 A1 - date-70 *
%AMA1border*
1,1,0.006000,-0.116200,0.029750*
1,1,0.006000,0.116200,0.029750*
20,1,0.006000,-0.116200,0.029750,0.116200,0.029750,0.0*
1,1,0.006000,0.116200,0.029750*
1,1,0.006000,0.116200,-0.029750*
20,1,0.006000,0.116200,0.029750,0.116200,-0.029750,0.0*
1,1,0.006000,0.116200,-0.029750*
1,1,0.006000,-0.116200,-0.029750*
20,1,0.006000,0.116200,-0.029750,-0.116200,-0.029750,0.0*
1,1,0.006000,-0.116200,-0.029750*
1,1,0.006000,-0.116200,0.029750*
20,1,0.006000,-0.116200,-0.029750,-0.116200,0.029750,0.0*
1,1,0.006000,-0.086100,0.016450*
1,1,0.006000,-0.086100,-0.012250*
20,1,0.006000,-0.086100,0.016450,-0.086100,-0.012250,0.0*
1,1,0.006000,-0.086100,0.003150*
1,1,0.006000,-0.088900,0.005950*
20,1,0.006000,-0.086100,0.003150,-0.088900,0.005950,0.0*
1,1,0.006000,-0.088900,0.005950*
1,1,0.006000,-0.091700,0.007350*
20,1,0.006000,-0.088900,0.005950,-0.091700,0.007350,0.0*
1,1,0.006000,-0.091700,0.007350*
1,1,0.006000,-0.095900,0.007350*
20,1,0.006000,-0.091700,0.007350,-0.095900,0.007350,0.0*
1,1,0.006000,-0.095900,0.007350*
1,1,0.006000,-0.098700,0.005950*
20,1,0.006000,-0.095900,0.007350,-0.098700,0.005950,0.0*
1,1,0.006000,-0.098700,0.005950*
1,1,0.006000,-0.101500,0.003150*
20,1,0.006000,-0.098700,0.005950,-0.101500,0.003150,0.0*
1,1,0.006000,-0.101500,0.003150*
1,1,0.006000,-0.102900,-0.001050*
20,1,0.006000,-0.101500,0.003150,-0.102900,-0.001050,0.0*
1,1,0.006000,-0.102900,-0.001050*
1,1,0.006000,-0.102900,-0.003850*
20,1,0.006000,-0.102900,-0.001050,-0.102900,-0.003850,0.0*
1,1,0.006000,-0.102900,-0.003850*
1,1,0.006000,-0.101500,-0.008050*
20,1,0.006000,-0.102900,-0.003850,-0.101500,-0.008050,0.0*
1,1,0.006000,-0.101500,-0.008050*
1,1,0.006000,-0.098700,-0.010850*
20,1,0.006000,-0.101500,-0.008050,-0.098700,-0.010850,0.0*
1,1,0.006000,-0.098700,-0.010850*
1,1,0.006000,-0.095900,-0.012250*
20,1,0.006000,-0.098700,-0.010850,-0.095900,-0.012250,0.0*
1,1,0.006000,-0.095900,-0.012250*
1,1,0.006000,-0.091700,-0.012250*
20,1,0.006000,-0.095900,-0.012250,-0.091700,-0.012250,0.0*
1,1,0.006000,-0.091700,-0.012250*
1,1,0.006000,-0.088900,-0.010850*
20,1,0.006000,-0.091700,-0.012250,-0.088900,-0.010850,0.0*
1,1,0.006000,-0.088900,-0.010850*
1,1,0.006000,-0.086100,-0.008050*
20,1,0.006000,-0.088900,-0.010850,-0.086100,-0.008050,0.0*
1,1,0.006000,-0.060200,0.007350*
1,1,0.006000,-0.060200,-0.012250*
20,1,0.006000,-0.060200,0.007350,-0.060200,-0.012250,0.0*
1,1,0.006000,-0.060200,0.003150*
1,1,0.006000,-0.063000,0.005950*
20,1,0.006000,-0.060200,0.003150,-0.063000,0.005950,0.0*
1,1,0.006000,-0.063000,0.005950*
1,1,0.006000,-0.065800,0.007350*
20,1,0.006000,-0.063000,0.005950,-0.065800,0.007350,0.0*
1,1,0.006000,-0.065800,0.007350*
1,1,0.006000,-0.070000,0.007350*
20,1,0.006000,-0.065800,0.007350,-0.070000,0.007350,0.0*
1,1,0.006000,-0.070000,0.007350*
1,1,0.006000,-0.072800,0.005950*
20,1,0.006000,-0.070000,0.007350,-0.072800,0.005950,0.0*
1,1,0.006000,-0.072800,0.005950*
1,1,0.006000,-0.075600,0.003150*
20,1,0.006000,-0.072800,0.005950,-0.075600,0.003150,0.0*
1,1,0.006000,-0.075600,0.003150*
1,1,0.006000,-0.077000,-0.001050*
20,1,0.006000,-0.075600,0.003150,-0.077000,-0.001050,0.0*
1,1,0.006000,-0.077000,-0.001050*
1,1,0.006000,-0.077000,-0.003850*
20,1,0.006000,-0.077000,-0.001050,-0.077000,-0.003850,0.0*
1,1,0.006000,-0.077000,-0.003850*
1,1,0.006000,-0.075600,-0.008050*
20,1,0.006000,-0.077000,-0.003850,-0.075600,-0.008050,0.0*
1,1,0.006000,-0.075600,-0.008050*
1,1,0.006000,-0.072800,-0.010850*
20,1,0.006000,-0.075600,-0.008050,-0.072800,-0.010850,0.0*
1,1,0.006000,-0.072800,-0.010850*
1,1,0.006000,-0.070000,-0.012250*
20,1,0.006000,-0.072800,-0.010850,-0.070000,-0.012250,0.0*
1,1,0.006000,-0.070000,-0.012250*
1,1,0.006000,-0.065800,-0.012250*
20,1,0.006000,-0.070000,-0.012250,-0.065800,-0.012250,0.0*
1,1,0.006000,-0.065800,-0.012250*
1,1,0.006000,-0.063000,-0.010850*
20,1,0.006000,-0.065800,-0.012250,-0.063000,-0.010850,0.0*
1,1,0.006000,-0.063000,-0.010850*
1,1,0.006000,-0.060200,-0.008050*
20,1,0.006000,-0.063000,-0.010850,-0.060200,-0.008050,0.0*
1,1,0.006000,-0.048300,0.016450*
1,1,0.006000,-0.048300,-0.006650*
20,1,0.006000,-0.048300,0.016450,-0.048300,-0.006650,0.0*
1,1,0.006000,-0.048300,-0.006650*
1,1,0.006000,-0.046900,-0.010850*
20,1,0.006000,-0.048300,-0.006650,-0.046900,-0.010850,0.0*
1,1,0.006000,-0.046900,-0.010850*
1,1,0.006000,-0.044100,-0.012250*
20,1,0.006000,-0.046900,-0.010850,-0.044100,-0.012250,0.0*
1,1,0.006000,-0.044100,-0.012250*
1,1,0.006000,-0.041300,-0.012250*
20,1,0.006000,-0.044100,-0.012250,-0.041300,-0.012250,0.0*
1,1,0.006000,-0.052500,0.007350*
1,1,0.006000,-0.042700,0.007350*
20,1,0.006000,-0.052500,0.007350,-0.042700,0.007350,0.0*
1,1,0.006000,-0.034300,-0.001050*
1,1,0.006000,-0.018200,-0.001050*
20,1,0.006000,-0.034300,-0.001050,-0.018200,-0.001050,0.0*
1,1,0.006000,-0.018200,-0.001050*
1,1,0.006000,-0.018200,0.001750*
20,1,0.006000,-0.018200,-0.001050,-0.018200,0.001750,0.0*
1,1,0.006000,-0.018200,0.001750*
1,1,0.006000,-0.019600,0.004550*
20,1,0.006000,-0.018200,0.001750,-0.019600,0.004550,0.0*
1,1,0.006000,-0.019600,0.004550*
1,1,0.006000,-0.021000,0.005950*
20,1,0.006000,-0.019600,0.004550,-0.021000,0.005950,0.0*
1,1,0.006000,-0.021000,0.005950*
1,1,0.006000,-0.023800,0.007350*
20,1,0.006000,-0.021000,0.005950,-0.023800,0.007350,0.0*
1,1,0.006000,-0.023800,0.007350*
1,1,0.006000,-0.027300,0.007350*
20,1,0.006000,-0.023800,0.007350,-0.027300,0.007350,0.0*
1,1,0.006000,-0.027300,0.007350*
1,1,0.006000,-0.030100,0.005950*
20,1,0.006000,-0.027300,0.007350,-0.030100,0.005950,0.0*
1,1,0.006000,-0.030100,0.005950*
1,1,0.006000,-0.032900,0.003150*
20,1,0.006000,-0.030100,0.005950,-0.032900,0.003150,0.0*
1,1,0.006000,-0.032900,0.003150*
1,1,0.006000,-0.034300,-0.001050*
20,1,0.006000,-0.032900,0.003150,-0.034300,-0.001050,0.0*
1,1,0.006000,-0.034300,-0.001050*
1,1,0.006000,-0.034300,-0.003850*
20,1,0.006000,-0.034300,-0.001050,-0.034300,-0.003850,0.0*
1,1,0.006000,-0.034300,-0.003850*
1,1,0.006000,-0.032900,-0.008050*
20,1,0.006000,-0.034300,-0.003850,-0.032900,-0.008050,0.0*
1,1,0.006000,-0.032900,-0.008050*
1,1,0.006000,-0.030100,-0.010850*
20,1,0.006000,-0.032900,-0.008050,-0.030100,-0.010850,0.0*
1,1,0.006000,-0.030100,-0.010850*
1,1,0.006000,-0.027300,-0.012250*
20,1,0.006000,-0.030100,-0.010850,-0.027300,-0.012250,0.0*
1,1,0.006000,-0.027300,-0.012250*
1,1,0.006000,-0.023800,-0.012250*
20,1,0.006000,-0.027300,-0.012250,-0.023800,-0.012250,0.0*
1,1,0.006000,-0.023800,-0.012250*
1,1,0.006000,-0.021000,-0.010850*
20,1,0.006000,-0.023800,-0.012250,-0.021000,-0.010850,0.0*
1,1,0.006000,-0.021000,-0.010850*
1,1,0.006000,-0.018200,-0.008050*
20,1,0.006000,-0.021000,-0.010850,-0.018200,-0.008050,0.0*
1,1,0.006000,0.028700,0.003150*
1,1,0.006000,0.025900,0.005950*
20,1,0.006000,0.028700,0.003150,0.025900,0.005950,0.0*
1,1,0.006000,0.025900,0.005950*
1,1,0.006000,0.023100,0.007350*
20,1,0.006000,0.025900,0.005950,0.023100,0.007350,0.0*
1,1,0.006000,0.023100,0.007350*
1,1,0.006000,0.018900,0.007350*
20,1,0.006000,0.023100,0.007350,0.018900,0.007350,0.0*
1,1,0.006000,0.018900,0.007350*
1,1,0.006000,0.016100,0.005950*
20,1,0.006000,0.018900,0.007350,0.016100,0.005950,0.0*
1,1,0.006000,0.016100,0.005950*
1,1,0.006000,0.013300,0.003150*
20,1,0.006000,0.016100,0.005950,0.013300,0.003150,0.0*
1,1,0.006000,0.013300,0.003150*
1,1,0.006000,0.011900,-0.001050*
20,1,0.006000,0.013300,0.003150,0.011900,-0.001050,0.0*
1,1,0.006000,0.011900,-0.001050*
1,1,0.006000,0.011900,-0.003850*
20,1,0.006000,0.011900,-0.001050,0.011900,-0.003850,0.0*
1,1,0.006000,0.011900,-0.003850*
1,1,0.006000,0.013300,-0.008050*
20,1,0.006000,0.011900,-0.003850,0.013300,-0.008050,0.0*
1,1,0.006000,0.013300,-0.008050*
1,1,0.006000,0.016100,-0.010850*
20,1,0.006000,0.013300,-0.008050,0.016100,-0.010850,0.0*
1,1,0.006000,0.016100,-0.010850*
1,1,0.006000,0.018900,-0.012250*
20,1,0.006000,0.016100,-0.010850,0.018900,-0.012250,0.0*
1,1,0.006000,0.018900,-0.012250*
1,1,0.006000,0.023100,-0.012250*
20,1,0.006000,0.018900,-0.012250,0.023100,-0.012250,0.0*
1,1,0.006000,0.023100,-0.012250*
1,1,0.006000,0.025900,-0.010850*
20,1,0.006000,0.023100,-0.012250,0.025900,-0.010850,0.0*
1,1,0.006000,0.025900,-0.010850*
1,1,0.006000,0.028700,-0.008050*
20,1,0.006000,0.025900,-0.010850,0.028700,-0.008050,0.0*
1,1,0.006000,0.043400,0.007350*
1,1,0.006000,0.040600,0.005950*
20,1,0.006000,0.043400,0.007350,0.040600,0.005950,0.0*
1,1,0.006000,0.040600,0.005950*
1,1,0.006000,0.037800,0.003150*
20,1,0.006000,0.040600,0.005950,0.037800,0.003150,0.0*
1,1,0.006000,0.037800,0.003150*
1,1,0.006000,0.036400,-0.001050*
20,1,0.006000,0.037800,0.003150,0.036400,-0.001050,0.0*
1,1,0.006000,0.036400,-0.001050*
1,1,0.006000,0.036400,-0.003850*
20,1,0.006000,0.036400,-0.001050,0.036400,-0.003850,0.0*
1,1,0.006000,0.036400,-0.003850*
1,1,0.006000,0.037800,-0.008050*
20,1,0.006000,0.036400,-0.003850,0.037800,-0.008050,0.0*
1,1,0.006000,0.037800,-0.008050*
1,1,0.006000,0.040600,-0.010850*
20,1,0.006000,0.037800,-0.008050,0.040600,-0.010850,0.0*
1,1,0.006000,0.040600,-0.010850*
1,1,0.006000,0.043400,-0.012250*
20,1,0.006000,0.040600,-0.010850,0.043400,-0.012250,0.0*
1,1,0.006000,0.043400,-0.012250*
1,1,0.006000,0.047600,-0.012250*
20,1,0.006000,0.043400,-0.012250,0.047600,-0.012250,0.0*
1,1,0.006000,0.047600,-0.012250*
1,1,0.006000,0.050400,-0.010850*
20,1,0.006000,0.047600,-0.012250,0.050400,-0.010850,0.0*
1,1,0.006000,0.050400,-0.010850*
1,1,0.006000,0.053200,-0.008050*
20,1,0.006000,0.050400,-0.010850,0.053200,-0.008050,0.0*
1,1,0.006000,0.053200,-0.008050*
1,1,0.006000,0.054600,-0.003850*
20,1,0.006000,0.053200,-0.008050,0.054600,-0.003850,0.0*
1,1,0.006000,0.054600,-0.003850*
1,1,0.006000,0.054600,-0.001050*
20,1,0.006000,0.054600,-0.003850,0.054600,-0.001050,0.0*
1,1,0.006000,0.054600,-0.001050*
1,1,0.006000,0.053200,0.003150*
20,1,0.006000,0.054600,-0.001050,0.053200,0.003150,0.0*
1,1,0.006000,0.053200,0.003150*
1,1,0.006000,0.050400,0.005950*
20,1,0.006000,0.053200,0.003150,0.050400,0.005950,0.0*
1,1,0.006000,0.050400,0.005950*
1,1,0.006000,0.047600,0.007350*
20,1,0.006000,0.050400,0.005950,0.047600,0.007350,0.0*
1,1,0.006000,0.047600,0.007350*
1,1,0.006000,0.043400,0.007350*
20,1,0.006000,0.047600,0.007350,0.043400,0.007350,0.0*
1,1,0.006000,0.079100,0.016450*
1,1,0.006000,0.079100,-0.012250*
20,1,0.006000,0.079100,0.016450,0.079100,-0.012250,0.0*
1,1,0.006000,0.079100,0.003150*
1,1,0.006000,0.076300,0.005950*
20,1,0.006000,0.079100,0.003150,0.076300,0.005950,0.0*
1,1,0.006000,0.076300,0.005950*
1,1,0.006000,0.073500,0.007350*
20,1,0.006000,0.076300,0.005950,0.073500,0.007350,0.0*
1,1,0.006000,0.073500,0.007350*
1,1,0.006000,0.069300,0.007350*
20,1,0.006000,0.073500,0.007350,0.069300,0.007350,0.0*
1,1,0.006000,0.069300,0.007350*
1,1,0.006000,0.066500,0.005950*
20,1,0.006000,0.069300,0.007350,0.066500,0.005950,0.0*
1,1,0.006000,0.066500,0.005950*
1,1,0.006000,0.063700,0.003150*
20,1,0.006000,0.066500,0.005950,0.063700,0.003150,0.0*
1,1,0.006000,0.063700,0.003150*
1,1,0.006000,0.063000,-0.001050*
20,1,0.006000,0.063700,0.003150,0.063000,-0.001050,0.0*
1,1,0.006000,0.063000,-0.001050*
1,1,0.006000,0.063000,-0.003850*
20,1,0.006000,0.063000,-0.001050,0.063000,-0.003850,0.0*
1,1,0.006000,0.063000,-0.003850*
1,1,0.006000,0.063700,-0.008050*
20,1,0.006000,0.063000,-0.003850,0.063700,-0.008050,0.0*
1,1,0.006000,0.063700,-0.008050*
1,1,0.006000,0.066500,-0.010850*
20,1,0.006000,0.063700,-0.008050,0.066500,-0.010850,0.0*
1,1,0.006000,0.066500,-0.010850*
1,1,0.006000,0.069300,-0.012250*
20,1,0.006000,0.066500,-0.010850,0.069300,-0.012250,0.0*
1,1,0.006000,0.069300,-0.012250*
1,1,0.006000,0.073500,-0.012250*
20,1,0.006000,0.069300,-0.012250,0.073500,-0.012250,0.0*
1,1,0.006000,0.073500,-0.012250*
1,1,0.006000,0.076300,-0.010850*
20,1,0.006000,0.073500,-0.012250,0.076300,-0.010850,0.0*
1,1,0.006000,0.076300,-0.010850*
1,1,0.006000,0.079100,-0.008050*
20,1,0.006000,0.076300,-0.010850,0.079100,-0.008050,0.0*
1,1,0.006000,0.088900,-0.001050*
1,1,0.006000,0.105000,-0.001050*
20,1,0.006000,0.088900,-0.001050,0.105000,-0.001050,0.0*
1,1,0.006000,0.105000,-0.001050*
1,1,0.006000,0.105000,0.001750*
20,1,0.006000,0.105000,-0.001050,0.105000,0.001750,0.0*
1,1,0.006000,0.105000,0.001750*
1,1,0.006000,0.103600,0.004550*
20,1,0.006000,0.105000,0.001750,0.103600,0.004550,0.0*
1,1,0.006000,0.103600,0.004550*
1,1,0.006000,0.102200,0.005950*
20,1,0.006000,0.103600,0.004550,0.102200,0.005950,0.0*
1,1,0.006000,0.102200,0.005950*
1,1,0.006000,0.099400,0.007350*
20,1,0.006000,0.102200,0.005950,0.099400,0.007350,0.0*
1,1,0.006000,0.099400,0.007350*
1,1,0.006000,0.095200,0.007350*
20,1,0.006000,0.099400,0.007350,0.095200,0.007350,0.0*
1,1,0.006000,0.095200,0.007350*
1,1,0.006000,0.092400,0.005950*
20,1,0.006000,0.095200,0.007350,0.092400,0.005950,0.0*
1,1,0.006000,0.092400,0.005950*
1,1,0.006000,0.090300,0.003150*
20,1,0.006000,0.092400,0.005950,0.090300,0.003150,0.0*
1,1,0.006000,0.090300,0.003150*
1,1,0.006000,0.088900,-0.001050*
20,1,0.006000,0.090300,0.003150,0.088900,-0.001050,0.0*
1,1,0.006000,0.088900,-0.001050*
1,1,0.006000,0.088900,-0.003850*
20,1,0.006000,0.088900,-0.001050,0.088900,-0.003850,0.0*
1,1,0.006000,0.088900,-0.003850*
1,1,0.006000,0.090300,-0.008050*
20,1,0.006000,0.088900,-0.003850,0.090300,-0.008050,0.0*
1,1,0.006000,0.090300,-0.008050*
1,1,0.006000,0.092400,-0.010850*
20,1,0.006000,0.090300,-0.008050,0.092400,-0.010850,0.0*
1,1,0.006000,0.092400,-0.010850*
1,1,0.006000,0.095200,-0.012250*
20,1,0.006000,0.092400,-0.010850,0.095200,-0.012250,0.0*
1,1,0.006000,0.095200,-0.012250*
1,1,0.006000,0.099400,-0.012250*
20,1,0.006000,0.095200,-0.012250,0.099400,-0.012250,0.0*
1,1,0.006000,0.099400,-0.012250*
1,1,0.006000,0.102200,-0.010850*
20,1,0.006000,0.099400,-0.012250,0.102200,-0.010850,0.0*
1,1,0.006000,0.102200,-0.010850*
1,1,0.006000,0.105000,-0.008050*
20,1,0.006000,0.102200,-0.010850,0.105000,-0.008050,0.0*
%
%ADD10C,0.102362*%
%ADD11A1border*%
%ADD12C,0.008000*%
%ADD13C,0.001000*%
%ADD14C,0.118110*%
%ADD15C,0.133858*%
%IPPOS*%
%LNborder.gbr*%
%LPD*%
G75*
G54D10*
X7984500Y9310600D03*
G54D10*
X7234500D03*
G54D11*
X1621340Y8808965D03*
G54D12*
X22474Y-436000D02*
Y-344609D01*
X58235D01*
X70156Y-359841D01*
Y-375073D01*
X58235Y-390305D01*
X22474D01*
X102474Y-344609D02*
Y-436000D01*
X150156D01*
X182474D02*
Y-359841D01*
X194394Y-344609D01*
X218235D01*
X230156Y-359841D01*
Y-436000D01*
X182474Y-390305D02*
X230156D01*
X310156Y-420768D02*
X298235Y-436000D01*
X274394D01*
X262474Y-420768D01*
Y-359841D01*
X274394Y-344609D01*
X298235D01*
X310156Y-359841D01*
X342474Y-344609D02*
X390156D01*
X342474Y-436000D02*
X390156D01*
X342474Y-390305D02*
X378235D01*
X342474Y-344609D02*
Y-436000D01*
X502474Y-344609D02*
X538235D01*
X550156Y-359841D01*
Y-420768D01*
X538235Y-436000D01*
X502474D01*
X514394D02*
Y-344609D01*
X582474Y-436000D02*
Y-359841D01*
X594394Y-344609D01*
X618235D01*
X630156Y-359841D01*
Y-436000D01*
X582474Y-390305D02*
X630156D01*
X662474Y-344609D02*
X710156D01*
X686315D02*
Y-436000D01*
X742474Y-344609D02*
X790156D01*
X742474Y-436000D02*
X790156D01*
X742474Y-390305D02*
X778235D01*
X742474Y-344609D02*
Y-436000D01*
X822474Y-390305D02*
X870156D01*
X950156Y-420768D02*
X938235Y-436000D01*
X914394D01*
X902474Y-420768D01*
Y-359841D01*
X914394Y-344609D01*
X938235D01*
X950156Y-359841D01*
X982474Y-420768D02*
Y-359841D01*
X994394Y-344609D01*
X1018235D01*
X1030156Y-359841D01*
Y-420768D01*
X1018235Y-436000D01*
X994394D01*
X982474Y-420768D01*
X1062474Y-344609D02*
X1098235D01*
X1110156Y-359841D01*
Y-420768D01*
X1098235Y-436000D01*
X1062474D01*
X1074394D02*
Y-344609D01*
X1142474D02*
X1190156D01*
X1142474Y-436000D02*
X1190156D01*
X1142474Y-390305D02*
X1178235D01*
X1142474Y-344609D02*
Y-436000D01*
X1314394Y-344609D02*
X1338235D01*
X1314394Y-436000D02*
X1338235D01*
X1326315Y-344609D02*
Y-436000D01*
X1382474D02*
Y-344609D01*
X1430156Y-436000D01*
Y-344609D01*
X1542474D02*
Y-436000D01*
X1590156D01*
X1622474D02*
Y-359841D01*
X1634394Y-344609D01*
X1658235D01*
X1670156Y-359841D01*
Y-436000D01*
X1622474Y-390305D02*
X1670156D01*
X1702474Y-344609D02*
X1726315Y-390305D01*
X1750156Y-344609D01*
X1726315Y-390305D02*
Y-436000D01*
X1782474Y-344609D02*
X1830156D01*
X1782474Y-436000D02*
X1830156D01*
X1782474Y-390305D02*
X1818235D01*
X1782474Y-344609D02*
Y-436000D01*
X1862474D02*
Y-344609D01*
X1898235D01*
X1910156Y-359841D01*
Y-375073D01*
X1898235Y-390305D01*
X1862474D01*
X1874394D02*
X1910156Y-436000D01*
X2034394Y-344609D02*
Y-420768D01*
X2046315Y-436000D01*
X2058235D01*
X2070156Y-420768D01*
X2022474Y-375073D02*
X2058235D01*
X2102474Y-420768D02*
Y-390305D01*
X2114394Y-375073D01*
X2138235D01*
X2150156Y-390305D01*
Y-420768D01*
X2138235Y-436000D01*
X2114394D01*
X2102474Y-420768D01*
X2182474Y-451232D02*
Y-390305D01*
X2194394Y-375073D01*
X2218235D01*
X2230156Y-390305D01*
Y-405536D01*
X2218235Y-420768D01*
X2182474D01*
X2262474Y-436000D02*
Y-390305D01*
X2274394Y-375073D01*
X2286315Y-390305D01*
Y-405536D01*
Y-390305D02*
X2298235Y-375073D01*
X2310156Y-390305D01*
Y-436000D01*
X2354394Y-375073D02*
X2378235D01*
X2390156Y-390305D01*
Y-436000D01*
X2354394D01*
X2342474Y-420768D01*
X2354394Y-405536D01*
X2390156D01*
X2422474Y-436000D02*
X2458235D01*
X2470156Y-420768D01*
X2458235Y-405536D01*
X2434394D01*
X2422474Y-390305D01*
X2434394Y-375073D01*
X2470156D01*
X2502474Y-344609D02*
Y-436000D01*
Y-405536D02*
X2526315D01*
X2550156Y-436000D01*
X2514394Y-405536D02*
X2538235Y-375073D01*
X2698235Y-436000D02*
X2674394Y-405536D01*
Y-375073D01*
X2698235Y-344609D01*
X2754394Y-436000D02*
Y-359841D01*
X2766315Y-344609D01*
X2778235D01*
X2790156Y-359841D01*
X2742474Y-390305D02*
X2766315D01*
X2822474Y-420768D02*
Y-390305D01*
X2834394Y-375073D01*
X2858235D01*
X2870156Y-390305D01*
Y-420768D01*
X2858235Y-436000D01*
X2834394D01*
X2822474Y-420768D01*
X2902474Y-375073D02*
Y-436000D01*
Y-405536D02*
X2926315Y-375073D01*
X2938235Y-390305D01*
X2982474Y-436000D02*
Y-390305D01*
X2994394Y-375073D01*
X3006315Y-390305D01*
Y-405536D01*
Y-390305D02*
X3018235Y-375073D01*
X3030156Y-390305D01*
Y-436000D01*
X3074394Y-375073D02*
X3098235D01*
X3110156Y-390305D01*
Y-436000D01*
X3074394D01*
X3062474Y-420768D01*
X3074394Y-405536D01*
X3110156D01*
X3154394Y-344609D02*
Y-420768D01*
X3166315Y-436000D01*
X3178235D01*
X3190156Y-420768D01*
X3142474Y-375073D02*
X3178235D01*
X3302474D02*
X3350156D01*
X3302474Y-405536D02*
X3350156D01*
X3462474Y-344609D02*
X3486315Y-390305D01*
X3510156Y-344609D01*
X3486315Y-390305D02*
Y-436000D01*
X3542474Y-344609D02*
X3566315Y-390305D01*
X3590156Y-344609D01*
X3566315Y-390305D02*
Y-436000D01*
X3622474Y-344609D02*
Y-436000D01*
X3646315Y-390305D01*
X3670156Y-436000D01*
Y-344609D01*
X3702474D02*
Y-436000D01*
X3726315Y-390305D01*
X3750156Y-436000D01*
Y-344609D01*
X3794394Y-436000D02*
X3818235Y-405536D01*
Y-375073D01*
X3794394Y-344609D01*
G54D13*
X8014397Y9448800D02*
X7207790D01*
X7198181Y9448398D01*
X7179283Y9446998D01*
X7169991Y9445899D01*
X7151690Y9443098D01*
X7142684Y9441296D01*
X7125087Y9437196D01*
X7116506Y9434802D01*
X7099701Y9429400D01*
X7091501Y9426400D01*
X7075498Y9419799D01*
X7067792Y9416296D01*
X7052780Y9408589D01*
X7045594Y9404496D01*
X7031710Y9395806D01*
X7024991Y9391293D01*
X7012275Y9381579D01*
X7006295Y9376596D01*
X6994796Y9365996D01*
X6989386Y9360585D01*
X6979290Y9349188D01*
X6974595Y9343393D01*
X6965894Y9331290D01*
X6961997Y9325094D01*
X6954902Y9312405D01*
X6951697Y9305794D01*
X6946199Y9292498D01*
X6943900Y9285700D01*
X6940198Y9271790D01*
X6938699Y9264796D01*
X6936799Y9250380D01*
X6936300Y9243174D01*
Y9228200D01*
X6935900Y9220701D01*
X6934000Y9205897D01*
X6932600Y9198600D01*
X6929100Y9184301D01*
X6926800Y9177299D01*
X6921599Y9163499D01*
X6918500Y9156800D01*
X6911701Y9143601D01*
X6907900Y9137201D01*
X6899601Y9124701D01*
X6895100Y9118600D01*
X6885400Y9106900D01*
X6880201Y9101301D01*
X6869199Y9090399D01*
X6863400Y9085200D01*
X6851099Y9075199D01*
X6844696Y9070497D01*
X6831400Y9061500D01*
X6824503Y9057302D01*
X6814762Y9051940D01*
X6795004Y9042302D02*
X6787398Y9038899D01*
X6779499Y9035900D01*
X6763399Y9030300D01*
X6755101Y9027800D01*
X6738200Y9023500D01*
X6729500Y9021700D01*
X6711996Y9018799D01*
X6703005Y9017701D01*
X6684897Y9016200D01*
X6675700Y9015800D01*
X196898D01*
X158399Y9012000D01*
X121500Y9000800D01*
X87499Y8982599D01*
X57601Y8958200D01*
X33201Y8928301D01*
X15000Y8894300D01*
X3800Y8857402D01*
X0Y8818970D01*
Y196802D01*
X3800Y158399D01*
X14999Y121501D01*
X33200Y87500D01*
X57600Y57600D01*
X87499Y33100D01*
X121499Y15000D01*
X158400Y3700D01*
X196917Y0D01*
X9921200D01*
X9959700Y3700D01*
X9996600Y15000D01*
X10030600Y33100D01*
X10060400Y57600D01*
X10084900Y87500D01*
X10103100Y121500D01*
X10114300Y158399D01*
X10118100Y196830D01*
Y8818998D01*
X10114300Y8857402D01*
X10103100Y8894300D01*
X10084899Y8928301D01*
X10060399Y8958200D01*
X10030601Y8982599D01*
X9996600Y9000800D01*
X9959700Y9012000D01*
X9921186Y9015800D01*
X8546600Y9015900D01*
X8537200Y9016300D01*
X8518700Y9017800D01*
X8509500Y9018900D01*
X8500603Y9020299D01*
X8474212Y9025697D02*
X8465500Y9027900D01*
X8457099Y9030300D01*
X8440603Y9035899D01*
X8432598Y9039001D01*
X8416904Y9045698D01*
X8409395Y9049403D01*
X8394698Y9057301D01*
X8387598Y9061501D01*
X8374002Y9070399D01*
X8367494Y9075205D01*
X8355001Y9085099D01*
X8349100Y9090300D01*
X8343372Y9095726D01*
X8327604Y9112595D02*
X8322601Y9118399D01*
X8317998Y9124502D01*
X8309500Y9136900D01*
X8305699Y9143303D01*
X8298701Y9156398D01*
X8295600Y9163101D01*
X8290200Y9176901D01*
X8287999Y9183902D01*
X8286100Y9190997D01*
X8281900Y9212805D02*
X8280999Y9220207D01*
X8280500Y9227596D01*
X8280500Y9242596D01*
X8279997Y9249922D01*
X8279099Y9257009D01*
X8274901Y9278296D02*
X8273089Y9285234D01*
X8270802Y9291995D01*
X8268096Y9298710D01*
X8258906Y9318389D02*
X8255399Y9324702D01*
X8251494Y9331008D01*
X8243007Y9343091D01*
X8238396Y9349005D01*
X8228492Y9360308D01*
X8223186Y9365814D01*
X8212006Y9376395D01*
X8206002Y9381398D01*
X8193585Y9391111D01*
X8186989Y9395707D01*
X8173382Y9404410D01*
X8166288Y9408507D01*
X8151676Y9416211D01*
X8144084Y9419707D01*
X8128489Y9426304D01*
X8120376Y9429308D01*
X8103990Y9434703D01*
X8095500Y9437100D01*
X8078189Y9441302D01*
X8069401Y9443100D01*
X8051469Y9445904D01*
X8042389Y9447001D01*
X8023807Y9448400D01*
X8014397Y9448800D01*
G54D12*
X83401Y-64609D02*
X52937D01*
X22474Y-95073D01*
Y-140768D01*
X37706Y-156000D01*
X68169D01*
X83401Y-140768D01*
Y-125536D01*
X68169Y-110305D01*
X22474D01*
X122474Y-156000D02*
X152937D01*
X183401Y-125536D01*
Y-79841D01*
X168169Y-64609D01*
X137706D01*
X122474Y-79841D01*
Y-95073D01*
X137706Y-110305D01*
X183401D01*
X222474Y-156000D02*
X252937D01*
X283401Y-125536D01*
Y-79841D01*
X268169Y-64609D01*
X237706D01*
X222474Y-79841D01*
Y-95073D01*
X237706Y-110305D01*
X283401D01*
X322474Y-79841D02*
X337706Y-64609D01*
X368169D01*
X383401Y-79841D01*
Y-95073D01*
X368169Y-110305D01*
X352937D01*
X322474Y-156000D01*
X383401D01*
X422474Y-79841D02*
X437706Y-64609D01*
X468169D01*
X483401Y-79841D01*
Y-95073D01*
X468169Y-110305D01*
X452937D01*
X422474Y-156000D01*
X483401D01*
X722474Y-64609D02*
X768169D01*
X783401Y-79841D01*
Y-95073D01*
X768169Y-110305D01*
X783401Y-125536D01*
Y-140768D01*
X768169Y-156000D01*
X722474D01*
X737706D02*
Y-64609D01*
Y-110305D02*
X768169D01*
X822474Y-140768D02*
Y-79841D01*
X837706Y-64609D01*
X868169D01*
X883401Y-79841D01*
Y-140768D01*
X868169Y-156000D01*
X837706D01*
X822474Y-140768D01*
X922474Y-156000D02*
Y-64609D01*
X968169D01*
X983401Y-79841D01*
Y-95073D01*
X968169Y-110305D01*
X922474D01*
X937706D02*
X983401Y-156000D01*
X1022474Y-64609D02*
X1068169D01*
X1083401Y-79841D01*
Y-140768D01*
X1068169Y-156000D01*
X1022474D01*
X1037706D02*
Y-64609D01*
X1122474D02*
X1183401D01*
X1122474Y-156000D02*
X1183401D01*
X1122474Y-110305D02*
X1168169D01*
X1122474Y-64609D02*
Y-156000D01*
X1222474D02*
Y-64609D01*
X1268169D01*
X1283401Y-79841D01*
Y-95073D01*
X1268169Y-110305D01*
X1222474D01*
X1237706D02*
X1283401Y-156000D01*
X9349173Y-92553D02*
X9410100D01*
X9349173Y-123016D02*
X9410100D01*
X9449173Y-92553D02*
Y-153480D01*
Y-123016D02*
X9479636Y-92553D01*
X9494868D01*
X9510100Y-107785D01*
Y-153480D01*
X9549173Y-138248D02*
Y-107785D01*
X9564405Y-92553D01*
X9594868D01*
X9610100Y-107785D01*
Y-138248D01*
X9594868Y-153480D01*
X9564405D01*
X9549173Y-138248D01*
X9664405Y-62089D02*
Y-138248D01*
X9679636Y-153480D01*
X9694868D01*
X9710100Y-138248D01*
X9649173Y-92553D02*
X9694868D01*
X9849173Y-153480D02*
Y-62089D01*
X9894868D01*
X9910100Y-77321D01*
Y-92553D01*
X9894868Y-107785D01*
X9849173D01*
X9949173Y-62089D02*
X10010100D01*
X9979636D02*
Y-153480D01*
X10049173Y-62089D02*
Y-153480D01*
X10110100Y-62089D02*
Y-153480D01*
X10049173Y-107785D02*
X10110100D01*
G54D14*
X9227063Y-98425D03*
G54D13*
X6814762Y9051940D02*
X6795004Y9042302D01*
X8500603Y9020299D02*
X8474212Y9025697D01*
X8343372Y9095726D02*
X8327604Y9112595D01*
X8286100Y9190997D02*
X8281900Y9212805D01*
X8279099Y9257009D02*
X8274901Y9278296D01*
X8268096Y9298710D02*
X8258906Y9318389D01*
G54D15*
X9921250Y196250D03*
G54D15*
X196850D03*
G54D15*
Y8818350D03*
G54D15*
X1181100D03*
G54D15*
X5059050D03*
G54D15*
X8937000D03*
G54D15*
X9921250D03*
M02*
