*
%FSLAX26Y26*%
%MOIN*%
%ADD10C,0.078740*%
%ADD11C,0.001000*%
%ADD12C,0.008000*%
%IPPOS*%
%LNrout.gbr*%
%LPD*%
G75*
G54D10*
X8015235Y9488170D02*
X7206968D01*
X7195905Y9487708D01*
X7175512Y9486196D01*
X7164699Y9484917D01*
X7144848Y9481879D01*
X7134352Y9479779D01*
X7115324Y9475346D01*
X7105187Y9472517D01*
X7086911Y9466643D01*
X7077225Y9463100D01*
X7059841Y9455928D01*
X7050645Y9451748D01*
X7034039Y9443222D01*
X7025401Y9438303D01*
X7010284Y9428841D01*
X7002044Y9423306D01*
X6987711Y9412357D01*
X6980336Y9406211D01*
X6967522Y9394400D01*
X6960704Y9387580D01*
X6949247Y9374647D01*
X6943290Y9367295D01*
X6933217Y9353283D01*
X6928129Y9345195D01*
X6919977Y9330613D01*
X6915761Y9321917D01*
X6909321Y9306343D01*
X6906189Y9297083D01*
X6901904Y9280983D01*
X6899873Y9271503D01*
X6897607Y9254316D01*
X6896930Y9244535D01*
Y9229248D01*
X6896664Y9224262D01*
X6895105Y9212117D01*
X6894122Y9206993D01*
X6891221Y9195142D01*
X6889660Y9190390D01*
X6885265Y9178726D01*
X6883119Y9174088D01*
X6877244Y9162683D01*
X6874554Y9158153D01*
X6867342Y9147291D01*
X6864080Y9142870D01*
X6855797Y9132879D01*
X6851909Y9128691D01*
X6842184Y9119055D01*
X6837827Y9115148D01*
X6827015Y9106358D01*
X6822006Y9102680D01*
X6810119Y9094637D01*
X6804765Y9091377D01*
X6795570Y9086316D01*
G02X6779448Y9078472I-70471J124363D01*
G01X6772360Y9075302D01*
X6766040Y9072902D01*
X6751250Y9067757D01*
X6744566Y9065744D01*
X6729355Y9061874D01*
X6722291Y9060412D01*
X6706387Y9057777D01*
X6698989Y9056873D01*
X6682415Y9055499D01*
X6674845Y9055170D01*
X194959D01*
X150674Y9050799D01*
X106347Y9037344D01*
X65559Y9015511D01*
X29619Y8986182D01*
X289Y8950240D01*
X-21544Y8909453D01*
X-34997Y8865130D01*
X-39370Y8820912D01*
Y194858D01*
X-34997Y150669D01*
X-21545Y106348D01*
X289Y65560D01*
X29593Y29650D01*
X65560Y178D01*
X106346Y-21534D01*
X150676Y-35109D01*
X195030Y-39370D01*
X9923087D01*
X9967426Y-35109D01*
X10011754Y-21534D01*
X10052569Y194D01*
X10088397Y29650D01*
X10117793Y65525D01*
X10139644Y106347D01*
X10153097Y150670D01*
X10157470Y194889D01*
Y8820942D01*
X10153097Y8865131D01*
X10139644Y8909453D01*
X10117792Y8950276D01*
X10088370Y8986182D01*
X10052569Y9015496D01*
X10011754Y9037344D01*
X9967424Y9050799D01*
X9923125Y9055170D01*
X8547439Y9055270D01*
X8539629Y9055602D01*
X8522630Y9056981D01*
X8514896Y9057905D01*
X8506509Y9059225D01*
G02X8484072Y9063813I29281J200344D01*
G01X8475738Y9065920D01*
X8468840Y9067891D01*
X8454048Y9072912D01*
X8447443Y9075471D01*
X8433352Y9081485D01*
X8427428Y9084407D01*
X8414048Y9091598D01*
X8408410Y9094933D01*
X8396493Y9102731D01*
X8391417Y9106480D01*
X8380257Y9115318D01*
X8375661Y9119369D01*
X8370214Y9124529D01*
G02X8357917Y9137728I76134J83254D01*
G01X8353261Y9143130D01*
X8349968Y9147497D01*
X8342698Y9158102D01*
X8340004Y9162641D01*
X8333957Y9173956D01*
X8331830Y9178553D01*
X8327354Y9189992D01*
X8325812Y9194898D01*
X8324055Y9201466D01*
G02X8321023Y9217218I87402J24987D01*
G01X8320209Y9223915D01*
X8319870Y9228923D01*
Y9243945D01*
X8319198Y9253748D01*
X8318240Y9261299D01*
G03X8312789Y9289030I-141796J-13475D01*
G01X8310829Y9296530D01*
X8307738Y9305669D01*
X8304908Y9312693D01*
G03X8293086Y9337934I-142411J-51313D01*
G01X8289362Y9344635D01*
X8284367Y9352704D01*
X8274659Y9366524D01*
X8268750Y9374102D01*
X8257488Y9386956D01*
X8250904Y9393788D01*
X8238166Y9405843D01*
X8230739Y9412033D01*
X8216985Y9422790D01*
X8208858Y9428454D01*
X8193843Y9438057D01*
X8185320Y9442979D01*
X8169103Y9451530D01*
X8159992Y9455725D01*
X8143000Y9462914D01*
X8133373Y9466478D01*
X8115500Y9472362D01*
X8105497Y9475187D01*
X8086780Y9479730D01*
X8076390Y9481855D01*
X8056875Y9484907D01*
X8046230Y9486193D01*
X8026120Y9487707D01*
X8015235Y9488170D01*
X9370071Y206621D02*
X9370090Y187011D01*
X9488130D01*
X9488125Y206621D01*
X9370071D01*
X9370070Y8828818D02*
X9370074Y8809083D01*
X9488130D01*
X9488128Y8828818D01*
X9370070D01*
X629870D02*
X629874Y8809083D01*
X748030D01*
X748026Y8828818D01*
X629870D01*
X748004Y206621D02*
X629871D01*
X629896Y187011D01*
X748029D01*
X748004Y206621D01*
G54D11*
X8014396Y9448800D02*
X8023813Y9448399D01*
X8042398Y9447000D01*
X8051474Y9445903D01*
X8069401Y9443100D01*
X8078195Y9441301D01*
X8095500Y9437100D01*
X8104000Y9434699D01*
X8120382Y9429306D01*
X8128488Y9426305D01*
X8144094Y9419702D01*
X8151681Y9416208D01*
X8166285Y9408508D01*
X8173390Y9404405D01*
X8186983Y9395711D01*
X8193595Y9391103D01*
X8205997Y9381402D01*
X8212013Y9376388D01*
X8223192Y9365807D01*
X8228498Y9360302D01*
X8238393Y9349009D01*
X8243005Y9343094D01*
X8251493Y9331009D01*
X8255400Y9324700D01*
X8258915Y9318375D01*
G02X8268093Y9298720I-96418J-56994D01*
G01X8270807Y9291980D01*
X8273089Y9285234D01*
X8274904Y9278286D01*
G02X8279098Y9257018I-98460J-30463D01*
G01X8279997Y9249924D01*
X8280500Y9242578D01*
Y9227594D01*
X8280999Y9220209D01*
X8281901Y9212793D01*
G03X8286099Y9191002I129555J13660D01*
G01X8287999Y9183903D01*
X8290200Y9176901D01*
X8295599Y9163101D01*
X8298702Y9156396D01*
X8305697Y9143305D01*
X8309501Y9136899D01*
X8317998Y9124503D01*
X8322601Y9118399D01*
X8327612Y9112585D01*
G03X8343362Y9095735I118736J95198D01*
G01X8349099Y9090301D01*
X8355002Y9085098D01*
X8367492Y9075206D01*
X8374002Y9070399D01*
X8387598Y9061501D01*
X8394696Y9057302D01*
X8409395Y9049403D01*
X8416906Y9045698D01*
X8432598Y9039001D01*
X8440605Y9035898D01*
X8457097Y9030301D01*
X8465500Y9027900D01*
X8474217Y9025696D01*
G03X8500592Y9020301I61574J233873D01*
G01X8509500Y9018900D01*
X8518703Y9017800D01*
X8537200Y9016300D01*
X8546598Y9015900D01*
X9921186Y9015800D01*
X9959700Y9012000D01*
X9996599Y9000800D01*
X10030601Y8982599D01*
X10060399Y8958201D01*
X10084899Y8928302D01*
X10103100Y8894299D01*
X10114300Y8857402D01*
X10118100Y8818983D01*
X10118098Y196809D01*
X10114299Y158398D01*
X10103100Y121501D01*
X10084899Y87499D01*
X10060401Y57601D01*
X10030600Y33100D01*
X9996601Y15000D01*
X9959700Y3700D01*
X9921200Y0D01*
X196916D01*
X158400Y3700D01*
X121499Y15000D01*
X87499Y33100D01*
X57599Y57601D01*
X33201Y87499D01*
X14999Y121501D01*
X3800Y158398D01*
X0Y196817D01*
X2Y8818991D01*
X3801Y8857402D01*
X15000Y8894299D01*
X33201Y8928301D01*
X57601Y8958200D01*
X87498Y8982599D01*
X121501Y9000800D01*
X158399Y9012000D01*
X196897Y9015800D01*
X6675700D01*
X6684897Y9016200D01*
X6703008Y9017701D01*
X6711993Y9018799D01*
X6729500Y9021700D01*
X6738200Y9023500D01*
X6755102Y9027801D01*
X6763398Y9030300D01*
X6779501Y9035900D01*
X6787398Y9038899D01*
X6795018Y9042307D01*
G03X6814757Y9051936I-69918J168372D01*
G01X6824504Y9057302D01*
X6831399Y9061499D01*
X6844696Y9070497D01*
X6851096Y9075197D01*
X6863401Y9085201D01*
X6869198Y9090398D01*
X6880202Y9101303D01*
X6885400Y9106900D01*
X6895100Y9118600D01*
X6899602Y9124702D01*
X6907900Y9137201D01*
X6911701Y9143602D01*
X6918501Y9156801D01*
X6921599Y9163498D01*
X6926800Y9177299D01*
X6929100Y9184301D01*
X6932600Y9198599D01*
X6933999Y9205895D01*
X6935900Y9220702D01*
X6936300Y9228200D01*
X6936301Y9243184D01*
X6936801Y9250395D01*
X6938699Y9264795D01*
X6940198Y9271788D01*
X6943900Y9285700D01*
X6946204Y9292508D01*
X6951701Y9305802D01*
X6954902Y9312404D01*
X6961995Y9325092D01*
X6965893Y9331289D01*
X6974593Y9343390D01*
X6979291Y9349190D01*
X6989394Y9360592D01*
X6994805Y9366004D01*
X7006291Y9376591D01*
X7012281Y9381584D01*
X7024988Y9391291D01*
X7031710Y9395806D01*
X7045591Y9404494D01*
X7052796Y9408597D01*
X7067797Y9416299D01*
X7075499Y9419799D01*
X7091498Y9426400D01*
X7099699Y9429400D01*
X7116514Y9434804D01*
X7125085Y9437196D01*
X7142694Y9441298D01*
X7151694Y9443099D01*
X7169999Y9445900D01*
X7179296Y9446999D01*
X7198191Y9448399D01*
X7207803Y9448800D01*
X8014396D01*
G54D12*
X68927Y-64609D02*
X38464D01*
X8000Y-95073D01*
Y-140768D01*
X23232Y-156000D01*
X53695D01*
X68927Y-140768D01*
Y-125536D01*
X53695Y-110305D01*
X8000D01*
X108000Y-156000D02*
X138464D01*
X168927Y-125536D01*
Y-79841D01*
X153695Y-64609D01*
X123232D01*
X108000Y-79841D01*
Y-95073D01*
X123232Y-110305D01*
X168927D01*
X208000Y-156000D02*
X238464D01*
X268927Y-125536D01*
Y-79841D01*
X253695Y-64609D01*
X223232D01*
X208000Y-79841D01*
Y-95073D01*
X223232Y-110305D01*
X268927D01*
X308000Y-79841D02*
X323232Y-64609D01*
X353695D01*
X368927Y-79841D01*
Y-95073D01*
X353695Y-110305D01*
X338464D01*
X308000Y-156000D01*
X368927D01*
X408000Y-79841D02*
X423232Y-64609D01*
X453695D01*
X468927Y-79841D01*
Y-95073D01*
X453695Y-110305D01*
X438464D01*
X408000Y-156000D01*
X468927D01*
X708000D02*
Y-64609D01*
X753695D01*
X768927Y-79841D01*
Y-95073D01*
X753695Y-110305D01*
X708000D01*
X723232D02*
X768927Y-156000D01*
X808000Y-140768D02*
Y-79841D01*
X823232Y-64609D01*
X853695D01*
X868927Y-79841D01*
Y-140768D01*
X853695Y-156000D01*
X823232D01*
X808000Y-140768D01*
X908000Y-64609D02*
Y-140768D01*
X923232Y-156000D01*
X953695D01*
X968927Y-140768D01*
Y-64609D01*
X1008000D02*
X1068927D01*
X1038464D02*
Y-156000D01*
M02*
