*
%FSLAX26Y26*%
%MOIN*%
%ADD10R,0.064100X0.056200*%
%ADD11R,0.064100X0.103400*%
%ADD12C,0.149606*%
%ADD13C,0.107362*%
%ADD14C,0.007000*%
%ADD15C,0.118110*%
%ADD16C,0.088740*%
%ADD17C,0.001000*%
%ADD18C,0.008000*%
%IPPOS*%
%LNtopmask.gbr*%
%LPD*%
G75*
G54D10*
X8186000Y9121200D03*
G54D10*
Y9188100D03*
G54D11*
X7834500Y9109800D03*
G54D11*
X7684500D03*
G54D11*
X7534500D03*
G54D11*
X7384500D03*
G54D12*
X9921250Y196250D03*
G54D12*
X196850D03*
G54D12*
Y8818350D03*
G54D12*
X1181100D03*
G54D12*
X5059050D03*
G54D12*
X8937000D03*
G54D12*
X9921250D03*
G54D13*
X7984500Y9310600D03*
G54D13*
X7234500D03*
G54D14*
X1788619Y8833294D02*
X1776036D01*
X1763453Y8819055D01*
Y8797698D01*
X1769744Y8790578D01*
X1782327D01*
X1788619Y8797698D01*
Y8804817D01*
X1782327Y8811936D01*
X1763453D01*
X1808453Y8790578D02*
X1821036D01*
X1833619Y8804817D01*
Y8826174D01*
X1827327Y8833294D01*
X1814744D01*
X1808453Y8826174D01*
Y8819055D01*
X1814744Y8811936D01*
X1833619D01*
X1853453Y8790578D02*
X1866036D01*
X1878619Y8804817D01*
Y8826174D01*
X1872327Y8833294D01*
X1859744D01*
X1853453Y8826174D01*
Y8819055D01*
X1859744Y8811936D01*
X1878619D01*
X1898453Y8826174D02*
X1904744Y8833294D01*
X1917327D01*
X1923619Y8826174D01*
Y8819055D01*
X1917327Y8811936D01*
X1911036D01*
X1898453Y8790578D01*
X1923619D01*
X1943453Y8826174D02*
X1949744Y8833294D01*
X1962327D01*
X1968619Y8826174D01*
Y8819055D01*
X1962327Y8811936D01*
X1956036D01*
X1943453Y8790578D01*
X1968619D01*
G54D15*
X984252Y8818898D03*
X9173228D03*
X9448819Y393701D03*
G54D16*
X9370071Y206621D02*
X9370090Y187011D01*
X9488130D01*
X9488125Y206621D01*
X9370071D01*
X9370070Y8828818D02*
X9370074Y8809083D01*
X9488130D01*
X9488128Y8828818D01*
X9370070D01*
X629870D02*
X629874Y8809083D01*
X748030D01*
X748026Y8828818D01*
X629870D01*
X748004Y206621D02*
X629871D01*
X629896Y187011D01*
X748029D01*
X748004Y206621D01*
G54D17*
X8014396Y9448800D02*
X8023813Y9448399D01*
X8042398Y9447000D01*
X8051474Y9445903D01*
X8069401Y9443100D01*
X8078195Y9441301D01*
X8095500Y9437100D01*
X8104000Y9434699D01*
X8120382Y9429306D01*
X8128488Y9426305D01*
X8144094Y9419702D01*
X8151681Y9416208D01*
X8166285Y9408508D01*
X8173390Y9404405D01*
X8186983Y9395711D01*
X8193595Y9391103D01*
X8205997Y9381402D01*
X8212013Y9376388D01*
X8223192Y9365807D01*
X8228498Y9360302D01*
X8238393Y9349009D01*
X8243005Y9343094D01*
X8251493Y9331009D01*
X8255400Y9324700D01*
X8258915Y9318375D01*
G02X8268093Y9298720I-96418J-56994D01*
G01X8270807Y9291980D01*
X8273089Y9285234D01*
X8274904Y9278286D01*
G02X8279098Y9257018I-98460J-30463D01*
G01X8279997Y9249924D01*
X8280500Y9242578D01*
Y9227594D01*
X8280999Y9220209D01*
X8281901Y9212793D01*
G03X8286099Y9191002I129555J13660D01*
G01X8287999Y9183903D01*
X8290200Y9176901D01*
X8295599Y9163101D01*
X8298702Y9156396D01*
X8305697Y9143305D01*
X8309501Y9136899D01*
X8317998Y9124503D01*
X8322601Y9118399D01*
X8327612Y9112585D01*
G03X8343362Y9095735I118736J95198D01*
G01X8349099Y9090301D01*
X8355002Y9085098D01*
X8367492Y9075206D01*
X8374002Y9070399D01*
X8387598Y9061501D01*
X8394696Y9057302D01*
X8409395Y9049403D01*
X8416906Y9045698D01*
X8432598Y9039001D01*
X8440605Y9035898D01*
X8457097Y9030301D01*
X8465500Y9027900D01*
X8474217Y9025696D01*
G03X8500592Y9020301I61574J233873D01*
G01X8509500Y9018900D01*
X8518703Y9017800D01*
X8537200Y9016300D01*
X8546598Y9015900D01*
X9921186Y9015800D01*
X9959700Y9012000D01*
X9996599Y9000800D01*
X10030601Y8982599D01*
X10060399Y8958201D01*
X10084899Y8928302D01*
X10103100Y8894299D01*
X10114300Y8857402D01*
X10118100Y8818983D01*
X10118098Y196809D01*
X10114299Y158398D01*
X10103100Y121501D01*
X10084899Y87499D01*
X10060401Y57601D01*
X10030600Y33100D01*
X9996601Y15000D01*
X9959700Y3700D01*
X9921200Y0D01*
X196916D01*
X158400Y3700D01*
X121499Y15000D01*
X87499Y33100D01*
X57599Y57601D01*
X33201Y87499D01*
X14999Y121501D01*
X3800Y158398D01*
X0Y196817D01*
X2Y8818991D01*
X3801Y8857402D01*
X15000Y8894299D01*
X33201Y8928301D01*
X57601Y8958200D01*
X87498Y8982599D01*
X121501Y9000800D01*
X158399Y9012000D01*
X196897Y9015800D01*
X6675700D01*
X6684897Y9016200D01*
X6703008Y9017701D01*
X6711993Y9018799D01*
X6729500Y9021700D01*
X6738200Y9023500D01*
X6755102Y9027801D01*
X6763398Y9030300D01*
X6779501Y9035900D01*
X6787398Y9038899D01*
X6795018Y9042307D01*
G03X6814757Y9051936I-69918J168372D01*
G01X6824504Y9057302D01*
X6831399Y9061499D01*
X6844696Y9070497D01*
X6851096Y9075197D01*
X6863401Y9085201D01*
X6869198Y9090398D01*
X6880202Y9101303D01*
X6885400Y9106900D01*
X6895100Y9118600D01*
X6899602Y9124702D01*
X6907900Y9137201D01*
X6911701Y9143602D01*
X6918501Y9156801D01*
X6921599Y9163498D01*
X6926800Y9177299D01*
X6929100Y9184301D01*
X6932600Y9198599D01*
X6933999Y9205895D01*
X6935900Y9220702D01*
X6936300Y9228200D01*
X6936301Y9243184D01*
X6936801Y9250395D01*
X6938699Y9264795D01*
X6940198Y9271788D01*
X6943900Y9285700D01*
X6946204Y9292508D01*
X6951701Y9305802D01*
X6954902Y9312404D01*
X6961995Y9325092D01*
X6965893Y9331289D01*
X6974593Y9343390D01*
X6979291Y9349190D01*
X6989394Y9360592D01*
X6994805Y9366004D01*
X7006291Y9376591D01*
X7012281Y9381584D01*
X7024988Y9391291D01*
X7031710Y9395806D01*
X7045591Y9404494D01*
X7052796Y9408597D01*
X7067797Y9416299D01*
X7075499Y9419799D01*
X7091498Y9426400D01*
X7099699Y9429400D01*
X7116514Y9434804D01*
X7125085Y9437196D01*
X7142694Y9441298D01*
X7151694Y9443099D01*
X7169999Y9445900D01*
X7179296Y9446999D01*
X7198191Y9448399D01*
X7207803Y9448800D01*
X8014396D01*
G54D18*
X68927Y-64609D02*
X38464D01*
X8000Y-95073D01*
Y-140768D01*
X23232Y-156000D01*
X53695D01*
X68927Y-140768D01*
Y-125536D01*
X53695Y-110305D01*
X8000D01*
X108000Y-156000D02*
X138464D01*
X168927Y-125536D01*
Y-79841D01*
X153695Y-64609D01*
X123232D01*
X108000Y-79841D01*
Y-95073D01*
X123232Y-110305D01*
X168927D01*
X208000Y-156000D02*
X238464D01*
X268927Y-125536D01*
Y-79841D01*
X253695Y-64609D01*
X223232D01*
X208000Y-79841D01*
Y-95073D01*
X223232Y-110305D01*
X268927D01*
X308000Y-79841D02*
X323232Y-64609D01*
X353695D01*
X368927Y-79841D01*
Y-95073D01*
X353695Y-110305D01*
X338464D01*
X308000Y-156000D01*
X368927D01*
X408000Y-79841D02*
X423232Y-64609D01*
X453695D01*
X468927Y-79841D01*
Y-95073D01*
X453695Y-110305D01*
X438464D01*
X408000Y-156000D01*
X468927D01*
X708000Y-64609D02*
X768927D01*
X738464D02*
Y-156000D01*
X808000Y-140768D02*
Y-79841D01*
X823232Y-64609D01*
X853695D01*
X868927Y-79841D01*
Y-140768D01*
X853695Y-156000D01*
X823232D01*
X808000Y-140768D01*
X908000Y-156000D02*
Y-64609D01*
X953695D01*
X968927Y-79841D01*
Y-95073D01*
X953695Y-110305D01*
X908000D01*
X1008000Y-156000D02*
Y-64609D01*
X1038464Y-110305D01*
X1068927Y-64609D01*
Y-156000D01*
X1108000D02*
Y-79841D01*
X1123232Y-64609D01*
X1153695D01*
X1168927Y-79841D01*
Y-156000D01*
X1108000Y-110305D02*
X1168927D01*
X1208000Y-140768D02*
X1223232Y-156000D01*
X1253695D01*
X1268927Y-140768D01*
Y-125536D01*
X1253695Y-110305D01*
X1223232D01*
X1208000Y-95073D01*
Y-79841D01*
X1223232Y-64609D01*
X1253695D01*
X1268927Y-79841D01*
X1308000Y-64609D02*
Y-156000D01*
X1368927Y-64609D02*
X1308000Y-110305D01*
X1368927Y-156000D01*
M02*
